# This file uses centimeters as units for non-parametric coordinates.

mtllib check_area.mtl
g default
v -0.500000 -1.000000 -0.866026
v -0.500000 -1.000000 0.866025
v 1.000000 -1.000000 0.000000
v 0.000000 1.000000 0.000000
vt 0.927579 0.986600
vt 0.078895 0.934362
vt 0.021405 0.121723
vt 0.954959 0.964622
vt 0.647576 0.679512
vt 0.975527 0.017690
vt 0.340194 0.394403
vt 0.032811 0.109293
vn 0.000000 -1.000000 0.000000
vn 0.000000 -1.000000 0.000000
vn 0.000000 -1.000000 0.000000
vn -0.970143 0.242536 -0.000000
vn -0.970143 0.242536 -0.000000
vn -0.970143 0.242536 -0.000000
vn 0.485071 0.242536 0.840168
vn 0.485071 0.242536 0.840168
vn 0.485071 0.242536 0.840168
vn 0.485071 0.242536 -0.840168
vn 0.485071 0.242536 -0.840168
vn 0.485071 0.242536 -0.840168
s off
g check_area:pCone1
usemtl check_area:initialShadingGroup
f 1/1/1 3/2/2 2/3/3
f 1/4/4 2/5/5 4/6/6
f 2/5/7 3/7/8 4/6/9
f 3/7/10 1/8/11 4/6/12
