# Blender v2.80 (sub 75) OBJ File: ''
# www.blender.org
mtllib check_similariry.mtl
o check1
v -0.500000 -0.500000 0.500000
v 0.500000 -0.500000 0.500000
v 0.500000 0.500000 0.500000
v -0.500000 0.500000 0.500000
v -0.500000 0.500000 0.000000
v 0.500000 0.500000 0.000000
v -0.500000 -0.500000 -0.000000
v 0.500000 -0.500000 -0.000000
vt 0.375000 0.000000
vt 0.625000 0.000000
vt 0.625000 0.250000
vt 0.375000 0.250000
vt 0.375000 0.875000
vt 0.625000 0.875000
vt 0.625000 1.000000
vt 0.375000 1.000000
vt 0.250000 0.000000
vt 0.250000 0.250000
vt 0.750000 0.000000
vt 0.750000 0.250000
vt 0.375000 0.375000
vt 0.625000 0.375000
vt 0.625000 0.875000
vt 0.375000 0.875000
vt 0.625000 0.375000
vt 0.375000 0.375000
vn 0.0000 -0.0000 1.0000
vn -0.5774 -0.5774 -0.5774
vn 0.5774 -0.5774 -0.5774
vn 0.0000 -1.0000 -0.0000
vn -1.0000 0.0000 0.0000
vn -0.5774 0.5774 -0.5774
vn 1.0000 0.0000 0.0000
vn 0.5774 0.5774 -0.5774
vn 0.0000 1.0000 0.0000
usemtl initialShadingGroup
s 1
f 1/1/1 2/2/1 3/3/1 4/4/1
f 7/5/2 8/6/3 2/7/4 1/8/4
f 7/9/2 1/1/5 4/4/5 5/10/6
f 2/2/7 8/11/3 6/12/8 3/3/7
f 7/13/2 5/14/6 6/15/8 8/16/3
f 4/4/9 3/3/9 6/17/8 5/18/6
