# This file uses centimeters as units for non-parametric coordinates.

mtllib check_area_ngon2.mtl
g default
v -0.500000 -0.500000 0.500000
v 0.500000 -0.500000 0.500000
v -0.500000 0.500000 0.500000
v 0.500000 0.500000 0.500000
v -0.500000 0.500000 -0.500000
v 0.500000 0.500000 -0.500000
v -0.500000 -0.500000 -0.500000
v 0.500000 -0.500000 -0.500000
v -0.157743 0.500000 -0.183323
v 0.000000 0.500000 0.735534
vt 0.001794 0.692394
vt 0.307409 0.692394
vt 0.307409 0.998008
vt 0.001794 0.998008
vt 0.314459 0.692394
vt 0.620073 0.692394
vt 0.620073 0.998008
vt 0.314459 0.998008
vt 0.209015 0.001992
vt 0.361823 0.073975
vt 0.361823 0.379589
vt 0.160807 0.282808
vt 0.056208 0.379589
vt 0.056208 0.073975
vt 0.282219 0.688798
vt 0.282219 0.383184
vt 0.587834 0.383184
vt 0.587834 0.688798
vt 0.314459 0.001992
vt 0.620073 0.001992
vt 0.620073 0.307606
vt 0.467266 0.307606
vt 0.314459 0.307606
vt 0.593360 0.311202
vt 0.697959 0.311202
vt 0.898974 0.311202
vt 0.898974 0.616816
vt 0.593360 0.616816
vn 0.000000 -0.116959 0.993137
vn 0.000000 -0.116959 0.993137
vn 0.000000 -0.116959 0.993137
vn 0.000000 -0.116959 0.993137
vn 0.000000 -0.116959 0.993137
vn 0.000000 1.000000 0.000000
vn 0.000000 1.000000 0.000000
vn 0.000000 1.000000 0.000000
vn 0.000000 1.000000 0.000000
vn 0.000000 1.000000 0.000000
vn 0.000000 1.000000 0.000000
vn 0.000000 0.156390 -0.987695
vn 0.000000 0.156390 -0.987695
vn 0.000000 0.156390 -0.987695
vn 0.000000 0.156390 -0.987695
vn 0.000000 0.156390 -0.987695
vn 0.000000 -1.000000 0.000000
vn 0.000000 -1.000000 0.000000
vn 0.000000 -1.000000 0.000000
vn 0.000000 -1.000000 0.000000
vn 1.000000 0.000000 0.000000
vn 1.000000 0.000000 0.000000
vn 1.000000 0.000000 0.000000
vn 1.000000 0.000000 0.000000
vn -1.000000 0.000000 0.000000
vn -1.000000 0.000000 0.000000
vn -1.000000 0.000000 0.000000
vn -1.000000 0.000000 0.000000
s off
g pCube1
usemtl initialShadingGroup
f 1/19/1 2/20/2 4/21/3 10/22/4 3/23/5
f 10/9/6 4/10/7 6/11/8 9/12/9 5/13/10 3/14/11
f 5/24/12 9/25/13 6/26/14 8/27/15 7/28/16
f 7/15/17 8/16/18 2/17/19 1/18/20
f 2/1/21 8/2/22 6/3/23 4/4/24
f 7/5/25 1/6/26 3/7/27 5/8/28
